<svg width="620" height="160" viewBox="0 0 620 160" fill="none" xmlns="http://www.w3.org/2000/svg" role="img" aria-labelledby="logoTitle logoDesc">
  <title id="logoTitle">LuxeRoutes logo</title>
  <desc id="logoDesc">A gold and navy travel logo with a plane, sun, and wave icon followed by the LuxeRoutes wordmark.</desc>

  <defs>
    <style>
      .gold { fill: #CFA041; }
      .navy { fill: #172F63; }
      .gray { fill: #5B5F66; }
      .script { font-family: "Georgia", "Times New Roman", serif; font-style: italic; }
    </style>
  </defs>

  <circle cx="82" cy="82" r="56" stroke="#CFA041" stroke-width="6" fill="none"/>
  <path d="M22 88 C40 62, 74 46, 132 34" stroke="#172F63" stroke-width="10" stroke-linecap="round" fill="none"/>
  <path d="M136 22 L154 27 L168 17 C172 14 176 14 177 16 C178 19 176 23 172 27 L161 38 L163 59 L155 62 L149 46 L138 50 L138 56 L129 54 L122 57 L117 53 L126 48 L116 42 L121 37 L131 39 L136 35 Z" class="navy"/>
  <path d="M68 89 A17 17 0 0 1 96 89" class="gold"/>
  <path d="M50 93 C66 90, 96 90, 112 93 C94 95, 68 95, 50 93Z" class="gray"/>
  <path d="M46 101 C64 97, 98 97, 116 101 C98 104, 64 104, 46 101Z" class="gray"/>
  <path d="M52 109 C70 106, 94 106, 110 109 C93 112, 69 112, 52 109Z" class="gray"/>

  <text x="160" y="107" font-size="86" class="script" fill="#CFA041">Luxe</text>
  <text x="352" y="107" font-size="86" class="script" fill="#172F63">Routes</text>
</svg>
